<?xml version="1.0" encoding="utf-8"?>
<!-- Generator: Adobe Illustrator 17.0.0, SVG Export Plug-In . SVG Version: 6.00 Build 0)  -->
<!DOCTYPE svg PUBLIC "-//W3C//DTD SVG 1.1//EN" "http://www.w3.org/Graphics/SVG/1.1/DTD/svg11.dtd">
<svg version="1.1" id="Layer_1" xmlns="http://www.w3.org/2000/svg" xmlns:xlink="http://www.w3.org/1999/xlink" x="0px" y="0px"
	 width="365.38px" height="44.353px" viewBox="0 0 365.38 44.353" enable-background="new 0 0 365.38 44.353" xml:space="preserve">
<g>
	<path d="M0.68,2.021c0-0.512,0.24-0.769,0.72-0.769h2.304c0.544,0,0.896,0.272,1.056,0.816c1.536,4.673,3.024,9.4,4.464,14.184
		c1.44,4.784,2.976,9.497,4.608,14.137l9.072-28.32c0.192-0.544,0.528-0.816,1.008-0.816h2.352c0.512,0,0.768,0.257,0.768,0.769
		V32.31c0,0.352-0.064,0.583-0.192,0.695c-0.128,0.112-0.353,0.168-0.672,0.168H24.2c-0.353,0-0.584-0.056-0.696-0.168
		c-0.113-0.112-0.168-0.344-0.168-0.695V11.525c-1.024,3.425-2.104,6.888-3.24,10.392c-1.136,3.504-2.216,6.969-3.24,10.393
		c-0.064,0.159-0.216,0.392-0.456,0.695c-0.24,0.304-0.648,0.456-1.224,0.456H12.44c-0.576,0-0.977-0.152-1.2-0.456
		c-0.224-0.304-0.368-0.536-0.432-0.695l-6.48-20.784V32.31c0,0.352-0.056,0.583-0.168,0.695c-0.112,0.112-0.328,0.168-0.648,0.168
		H1.448c-0.288,0-0.488-0.056-0.6-0.168C0.735,32.893,0.68,32.661,0.68,32.31V2.021z"/>
	<path d="M41.576,21.894c-0.384,0-0.824,0.008-1.32,0.023c-0.496,0.017-0.952,0.089-1.368,0.216
		c-0.417,0.129-0.761,0.337-1.032,0.624c-0.272,0.288-0.408,0.721-0.408,1.297c0.16,1.6,0.784,2.968,1.872,4.104
		c1.087,1.137,2.479,1.752,4.176,1.848h3.504c1.087,0,1.96-0.216,2.616-0.647c0.655-0.433,1.352-1.016,2.088-1.752
		c0.256-0.256,0.463-0.376,0.624-0.36c0.16,0.017,0.336,0.137,0.528,0.36l1.488,1.439c0.352,0.385,0.408,0.688,0.168,0.912
		c-0.24,0.225-0.488,0.497-0.744,0.816c-0.929,0.864-1.968,1.528-3.12,1.992c-1.152,0.463-2.352,0.695-3.6,0.695h-3.552
		c-1.344,0-2.608-0.256-3.792-0.768c-1.184-0.512-2.216-1.216-3.096-2.112c-0.88-0.896-1.576-1.928-2.088-3.096
		c-0.512-1.168-0.768-2.424-0.768-3.769v-6.048c0-1.344,0.256-2.607,0.768-3.792c0.512-1.184,1.208-2.224,2.088-3.12
		c0.88-0.896,1.912-1.6,3.096-2.111c1.184-0.512,2.448-0.769,3.792-0.769h2.112c1.312,0,2.552,0.257,3.72,0.769
		c1.167,0.512,2.184,1.216,3.048,2.111c0.864,0.896,1.552,1.937,2.064,3.12c0.512,1.185,0.768,2.448,0.768,3.792v3.024
		c0,0.225-0.185,0.479-0.552,0.768c-0.369,0.288-0.729,0.433-1.08,0.433h-2.016H41.576z M51.559,17.669
		c-0.064-2.399-1.121-4.191-3.168-5.376c-0.929-0.479-1.889-0.72-2.88-0.72h-2.016c-0.641,0-1.241,0.032-1.8,0.096
		c-0.561,0.064-1.097,0.272-1.608,0.624c-0.864,0.641-1.52,1.433-1.968,2.376c-0.449,0.944-0.688,1.944-0.72,3v1.633
		c0.448-0.224,0.84-0.4,1.176-0.528s0.688-0.231,1.056-0.312c0.367-0.079,0.784-0.127,1.248-0.144
		c0.464-0.016,1.048-0.024,1.752-0.024h8.928V17.669z"/>
	<path d="M63.464,11.813h-2.352c-0.32,0-0.528-0.056-0.624-0.168c-0.096-0.112-0.144-0.248-0.144-0.408V9.846
		c0-0.128,0.064-0.312,0.192-0.553c0.127-0.239,0.319-0.424,0.576-0.552c0.672-0.288,1.216-0.672,1.632-1.152
		c0.416-0.479,0.64-2.304,0.672-5.472c0-0.352,0.056-0.583,0.168-0.696c0.112-0.111,0.312-0.168,0.6-0.168H66.2
		c0.352,0,0.583,0.057,0.696,0.168c0.112,0.113,0.168,0.345,0.168,0.696l0.048,5.568c0,0.32,0.144,0.479,0.432,0.479h5.472
		c0.416,0,0.624,0.209,0.624,0.624v2.544c0,0.064-0.032,0.161-0.096,0.288c-0.065,0.129-0.24,0.192-0.528,0.192h-5.904
		l-0.048,11.472c0.031,1.024,0.264,1.992,0.696,2.904s1.08,1.672,1.944,2.28c0.992,0.672,2.128,1.008,3.408,1.008h0.72
		c0.352,0,0.592,0.064,0.72,0.191c0.127,0.129,0.192,0.368,0.192,0.721v1.92c0,0.352-0.064,0.583-0.192,0.695
		c-0.128,0.112-0.368,0.168-0.72,0.168h-0.816c-1.312,0-2.552-0.264-3.72-0.792c-1.168-0.527-2.184-1.239-3.048-2.136
		c-0.864-0.896-1.552-1.936-2.064-3.12c-0.512-1.184-0.768-2.432-0.768-3.744L63.464,11.813z"/>
	<path d="M78.487,25.062c0-0.704,0.151-1.456,0.456-2.256s0.792-1.536,1.464-2.208c0.672-0.673,1.56-1.231,2.664-1.681
		c1.104-0.447,2.472-0.672,4.104-0.672h4.944c0.736,0,1.472,0.024,2.208,0.072c0.736,0.048,1.392,0.248,1.968,0.6v-1.632
		c0-1.023-0.312-1.992-0.936-2.904c-0.624-0.911-1.368-1.607-2.232-2.088c-0.96-0.479-1.92-0.72-2.88-0.72h-2.592
		c-1.025,0-1.985,0.24-2.88,0.72c-0.384,0.161-0.72,0.368-1.008,0.624c-0.288,0.257-0.56,0.528-0.816,0.816
		c-0.256,0.257-0.456,0.384-0.6,0.384s-0.329-0.127-0.552-0.384l-1.44-1.44c-0.224-0.191-0.344-0.359-0.36-0.504
		c-0.017-0.144,0.104-0.344,0.36-0.6c0.064-0.096,0.152-0.184,0.264-0.265c0.112-0.079,0.216-0.184,0.312-0.312
		c0.896-0.864,1.928-1.536,3.096-2.016c1.167-0.48,2.359-0.721,3.576-0.721h2.688c1.312,0,2.552,0.257,3.72,0.769
		c1.167,0.512,2.191,1.208,3.072,2.088c0.88,0.881,1.576,1.912,2.088,3.096c0.511,1.185,0.768,2.433,0.768,3.744v15.6h-1.872
		c-0.705,0-1.161-0.224-1.368-0.672c-0.208-0.447-0.344-0.96-0.408-1.536c-0.704,0.705-1.616,1.297-2.736,1.776
		c-1.121,0.48-2.208,0.72-3.264,0.72h-2.112c-1.344,0-2.6-0.185-3.768-0.552c-1.168-0.368-2.192-0.912-3.072-1.632
		c-0.881-0.72-1.577-1.6-2.088-2.64C78.743,27.598,78.487,26.405,78.487,25.062z M96.295,23.717c0-0.479-0.072-0.84-0.216-1.079
		c-0.144-0.24-0.384-0.416-0.72-0.528c-0.336-0.112-0.776-0.176-1.32-0.192c-0.544-0.016-1.2-0.039-1.968-0.071h-4.896
		c-0.641,0.032-1.248,0.104-1.824,0.216s-1.08,0.288-1.512,0.527c-0.432,0.24-0.776,0.561-1.032,0.96
		c-0.256,0.401-0.384,0.905-0.384,1.513c0,1.439,0.472,2.616,1.416,3.527c0.944,0.912,2.392,1.385,4.344,1.416h2.064
		c0.704,0,1.416-0.096,2.136-0.288c0.72-0.191,1.368-0.463,1.944-0.815c0.576-0.352,1.048-0.775,1.416-1.272
		c0.367-0.495,0.552-1.08,0.552-1.752V23.717z"/>
	<g>
		<path d="M106.614,2.021c0-0.512,0.24-0.769,0.72-0.769h2.304c0.544,0,0.896,0.272,1.056,0.816c1.536,4.673,3.024,9.4,4.464,14.184
			c1.44,4.784,2.976,9.497,4.608,14.137l9.072-28.32c0.192-0.544,0.528-0.816,1.008-0.816h2.352c0.512,0,0.768,0.257,0.768,0.769
			V32.31c0,0.352-0.064,0.583-0.192,0.695c-0.128,0.112-0.353,0.168-0.672,0.168h-1.968c-0.353,0-0.584-0.056-0.696-0.168
			c-0.113-0.112-0.168-0.344-0.168-0.695V11.525c-1.024,3.425-2.104,6.888-3.24,10.392c-1.136,3.504-2.216,6.969-3.24,10.393
			c-0.064,0.159-0.216,0.392-0.456,0.695c-0.24,0.304-0.648,0.456-1.224,0.456h-2.736c-0.576,0-0.977-0.152-1.2-0.456
			c-0.224-0.304-0.368-0.536-0.432-0.695l-6.48-20.784V32.31c0,0.352-0.056,0.583-0.168,0.695c-0.112,0.112-0.328,0.168-0.648,0.168
			h-2.064c-0.288,0-0.488-0.056-0.6-0.168c-0.112-0.112-0.168-0.344-0.168-0.695V2.021z"/>
		<path d="M121.11,33.961h-2.736c-0.741,0-1.281-0.222-1.603-0.659c-0.25-0.34-0.412-0.604-0.493-0.806l-5.516-17.688V32.31
			c0,0.5-0.1,0.833-0.313,1.048c-0.212,0.213-0.54,0.315-1.002,0.315h-2.064c-0.431,0-0.743-0.104-0.955-0.315
			c-0.213-0.214-0.313-0.547-0.313-1.048V2.021c0-0.782,0.468-1.269,1.22-1.269h2.304c0.767,0,1.312,0.417,1.536,1.175
			c1.525,4.638,3.028,9.414,4.463,14.181c1.289,4.283,2.669,8.551,4.109,12.706l8.616-26.897c0.357-1.015,1.083-1.164,1.484-1.164
			h2.352c0.782,0,1.268,0.486,1.268,1.269V32.31c0,0.506-0.118,0.856-0.361,1.07c-0.226,0.197-0.553,0.293-1.002,0.293h-1.968
			c-0.502,0-0.836-0.101-1.05-0.315c-0.213-0.212-0.313-0.546-0.313-1.048V14.898c-0.728,2.368-1.486,4.77-2.265,7.173
			c-1.129,3.482-2.218,6.976-3.236,10.382c-0.101,0.254-0.268,0.514-0.542,0.861C122.388,33.743,121.844,33.961,121.11,33.961z
			 M109.762,8.242l7.458,23.919c0.014,0.03,0.098,0.196,0.357,0.547c0.154,0.209,0.519,0.253,0.798,0.253h2.736
			c0.412,0,0.692-0.09,0.832-0.267c0.283-0.358,0.363-0.52,0.385-0.572c1.005-3.369,2.096-6.869,3.228-10.359
			c1.133-3.495,2.222-6.988,3.237-10.381l0.979-3.272v24.2c0,0.208,0.022,0.309,0.035,0.348c0.021-0.007,0.12,0.016,0.329,0.016
			h1.968c0.218,0,0.312-0.032,0.339-0.044c-0.004-0.012,0.025-0.105,0.025-0.319V2.021c0-0.236-0.033-0.269-0.268-0.269h-2.352
			c-0.19,0-0.387,0.059-0.536,0.482l-9.521,29.724l-0.494-1.403c-1.623-4.611-3.175-9.375-4.616-14.158
			c-1.433-4.76-2.933-9.527-4.46-14.172c-0.117-0.396-0.309-0.473-0.581-0.473h-2.304c-0.169,0-0.22,0-0.22,0.269V32.31
			c0,0.213,0.024,0.313,0.037,0.351c0.015-0.009,0.088,0.013,0.231,0.013h2.064c0.175,0,0.263-0.021,0.297-0.032
			c-0.005-0.021,0.019-0.122,0.019-0.331V8.242z"/>
	</g>
	<g>
		<path d="M138.15,25.062c0-0.704,0.151-1.456,0.456-2.256s0.792-1.536,1.464-2.208c0.672-0.673,1.56-1.231,2.664-1.681
			c1.104-0.447,2.472-0.672,4.104-0.672h4.944c0.736,0,1.472,0.024,2.208,0.072c0.736,0.048,1.392,0.248,1.968,0.6v-1.632
			c0-1.023-0.312-1.992-0.936-2.904c-0.624-0.911-1.368-1.607-2.232-2.088c-0.96-0.479-1.92-0.72-2.88-0.72h-2.592
			c-1.025,0-1.985,0.24-2.88,0.72c-0.384,0.161-0.72,0.368-1.008,0.624c-0.288,0.257-0.56,0.528-0.816,0.816
			c-0.256,0.257-0.456,0.384-0.6,0.384s-0.329-0.127-0.552-0.384l-1.44-1.44c-0.224-0.191-0.344-0.359-0.36-0.504
			c-0.017-0.144,0.104-0.344,0.36-0.6c0.064-0.096,0.152-0.184,0.264-0.265c0.112-0.079,0.216-0.184,0.312-0.312
			c0.896-0.864,1.928-1.536,3.096-2.016c1.167-0.48,2.359-0.721,3.576-0.721h2.688c1.312,0,2.552,0.257,3.72,0.769
			c1.167,0.512,2.191,1.208,3.072,2.088c0.88,0.881,1.576,1.912,2.088,3.096c0.511,1.185,0.768,2.433,0.768,3.744v15.6h-1.872
			c-0.705,0-1.161-0.224-1.368-0.672c-0.208-0.447-0.344-0.96-0.408-1.536c-0.704,0.705-1.616,1.297-2.736,1.776
			c-1.121,0.48-2.208,0.72-3.264,0.72h-2.112c-1.344,0-2.6-0.185-3.768-0.552c-1.168-0.368-2.192-0.912-3.072-1.632
			c-0.881-0.72-1.577-1.6-2.088-2.64C138.406,27.598,138.15,26.405,138.15,25.062z M155.958,23.717c0-0.479-0.072-0.84-0.216-1.079
			c-0.144-0.24-0.384-0.416-0.72-0.528c-0.336-0.112-0.776-0.176-1.32-0.192c-0.544-0.016-1.2-0.039-1.968-0.071h-4.896
			c-0.641,0.032-1.248,0.104-1.824,0.216s-1.08,0.288-1.512,0.527c-0.432,0.24-0.776,0.561-1.032,0.96
			c-0.256,0.401-0.384,0.905-0.384,1.513c0,1.439,0.472,2.616,1.416,3.527c0.944,0.912,2.392,1.385,4.344,1.416h2.064
			c0.704,0,1.416-0.096,2.136-0.288c0.72-0.191,1.368-0.463,1.944-0.815c0.576-0.352,1.048-0.775,1.416-1.272
			c0.367-0.495,0.552-1.08,0.552-1.752V23.717z"/>
		<path d="M149.958,33.961h-2.112c-1.387,0-2.705-0.193-3.918-0.575c-1.224-0.386-2.314-0.965-3.239-1.722
			c-0.932-0.761-1.679-1.705-2.22-2.806c-0.543-1.104-0.819-2.381-0.819-3.797c0-0.763,0.164-1.582,0.488-2.434
			c0.329-0.863,0.859-1.666,1.578-2.384c0.713-0.714,1.665-1.316,2.829-1.79c1.161-0.471,2.605-0.709,4.292-0.709h4.944
			c0.738,0,1.492,0.024,2.24,0.073c0.51,0.033,0.99,0.134,1.436,0.302v-0.835c0-0.917-0.286-1.799-0.849-2.622
			c-0.578-0.843-1.271-1.493-2.062-1.934c-0.866-0.432-1.76-0.656-2.637-0.656h-2.592c-0.936,0-1.826,0.223-2.645,0.66
			c-0.375,0.16-0.668,0.341-0.912,0.558c-0.274,0.244-0.535,0.505-0.774,0.774c-0.386,0.388-0.681,0.552-0.974,0.552
			c-0.4,0-0.722-0.317-0.929-0.556l-1.417-1.415c-0.299-0.254-0.473-0.525-0.503-0.804c-0.047-0.405,0.265-0.769,0.504-1.007
			c0.034-0.069,0.164-0.201,0.325-0.316c0.072-0.051,0.139-0.119,0.205-0.207c0.989-0.963,2.084-1.676,3.306-2.178
			c1.222-0.503,2.489-0.758,3.766-0.758h2.688c1.374,0,2.693,0.272,3.921,0.811c1.219,0.534,2.304,1.271,3.225,2.192
			c0.92,0.922,1.659,2.015,2.194,3.25c0.537,1.244,0.809,2.57,0.809,3.943v16.1h-2.372c-1.138,0-1.619-0.523-1.822-0.962
			c-0.114-0.245-0.209-0.509-0.284-0.789c-0.626,0.489-1.366,0.918-2.209,1.279C152.243,33.705,151.078,33.961,149.958,33.961z
			 M146.838,18.745c-1.558,0-2.876,0.214-3.916,0.636c-1.039,0.422-1.88,0.951-2.498,1.57c-0.619,0.618-1.073,1.302-1.351,2.032
			c-0.281,0.738-0.423,1.437-0.423,2.078c0,1.262,0.241,2.391,0.716,3.355c0.478,0.971,1.136,1.803,1.956,2.474
			c0.826,0.676,1.804,1.194,2.906,1.542c1.116,0.351,2.333,0.528,3.618,0.528h2.112c0.984,0,2.016-0.229,3.067-0.68
			c1.057-0.452,1.924-1.014,2.579-1.67l0.736-0.736l0.115,1.035c0.058,0.521,0.18,0.985,0.364,1.38
			c0.044,0.096,0.177,0.383,0.915,0.383h1.372v-15.1c0-1.235-0.245-2.429-0.727-3.546c-0.485-1.119-1.152-2.108-1.983-2.94
			c-0.833-0.832-1.815-1.499-2.919-1.983c-1.101-0.482-2.285-0.727-3.52-0.727h-2.688c-1.145,0-2.284,0.229-3.385,0.683
			c-1.105,0.454-2.094,1.098-2.939,1.913c-0.076,0.111-0.218,0.252-0.371,0.36c-0.06,0.043-0.107,0.089-0.137,0.135
			c-0.14,0.146-0.211,0.237-0.248,0.289c0.028,0.035,0.077,0.087,0.157,0.156l1.469,1.467c0.097,0.11,0.164,0.173,0.207,0.207
			c0.048-0.033,0.126-0.095,0.237-0.207c0.245-0.276,0.533-0.565,0.837-0.836c0.326-0.29,0.712-0.529,1.147-0.712
			c0.923-0.497,1.971-0.759,3.074-0.759h2.592c1.033,0,2.077,0.26,3.104,0.772c0.947,0.526,1.755,1.28,2.421,2.253
			c0.679,0.992,1.023,2.064,1.023,3.187v2.523l-0.761-0.465c-0.503-0.308-1.089-0.485-1.739-0.527
			c-0.728-0.047-1.459-0.071-2.176-0.071H146.838z M149.91,30.505h-2.064c-2.082-0.033-3.657-0.557-4.692-1.557
			c-1.041-1.005-1.568-2.312-1.568-3.887c0-0.701,0.156-1.301,0.463-1.782c0.3-0.469,0.707-0.848,1.21-1.127
			c0.477-0.265,1.035-0.46,1.66-0.582c0.592-0.115,1.23-0.19,1.895-0.224l0.025-0.001h4.896c0.786,0.032,1.439,0.056,1.982,0.071
			c0.602,0.019,1.08,0.09,1.464,0.218c0.451,0.151,0.784,0.401,0.99,0.746c0.193,0.32,0.287,0.758,0.287,1.336v2.16
			c0,0.778-0.219,1.468-0.65,2.05c-0.404,0.546-0.928,1.018-1.557,1.401c-0.613,0.375-1.312,0.669-2.076,0.872
			C151.417,30.402,150.656,30.505,149.91,30.505z M146.851,22.346c-0.613,0.031-1.199,0.101-1.741,0.207
			c-0.522,0.102-0.981,0.261-1.366,0.474c-0.361,0.201-0.64,0.46-0.853,0.792c-0.202,0.317-0.305,0.735-0.305,1.243
			c0,1.311,0.413,2.347,1.263,3.168c0.846,0.817,2.193,1.246,4.005,1.275h2.056c0.658,0,1.333-0.091,2.007-0.271
			c0.671-0.178,1.28-0.434,1.812-0.759c0.519-0.316,0.947-0.701,1.275-1.144c0.305-0.411,0.454-0.887,0.454-1.454v-2.16
			c0-0.506-0.09-0.731-0.144-0.821c-0.082-0.136-0.229-0.238-0.45-0.312c-0.286-0.096-0.682-0.152-1.177-0.167
			c-0.545-0.016-1.204-0.039-1.974-0.071H146.851z"/>
	</g>
	<g>
		<path d="M169.877,32.31c0,0.352-0.057,0.583-0.168,0.695c-0.112,0.112-0.328,0.168-0.648,0.168h-2.016
			c-0.32,0-0.536-0.056-0.647-0.168c-0.113-0.112-0.169-0.344-0.169-0.695V2.021c0-0.352,0.056-0.568,0.169-0.648
			c0.111-0.079,0.327-0.12,0.647-0.12h2.016c0.32,0,0.536,0.041,0.648,0.12c0.111,0.08,0.168,0.297,0.168,0.648V18.39l10.512-13.393
			c0.064-0.063,0.12-0.096,0.168-0.096c0.049,0,0.104-0.016,0.168-0.048c0.064,0,0.128-0.016,0.192-0.048h3.504
			c0.192,0,0.319,0.064,0.384,0.191c0.032,0.064,0.032,0.112,0,0.145c-0.672,0.896-1.368,1.823-2.088,2.783
			c-0.72,0.961-1.385,1.849-1.992,2.664c-0.607,0.816-1.104,1.488-1.487,2.017c-0.385,0.527-0.593,0.809-0.624,0.84
			c-0.064,0.064-0.12,0.176-0.168,0.336s0.007,0.384,0.168,0.672l9.84,18.288c0.031,0.096,0.048,0.176,0.048,0.24
			c0,0.127-0.128,0.191-0.384,0.191h-3.024c-0.032,0-0.112-0.016-0.24-0.048s-0.239-0.096-0.336-0.191l-8.544-15.744
			c-0.128-0.192-0.232-0.271-0.312-0.24c-0.08,0.032-0.185,0.112-0.312,0.24l-4.752,5.616c-0.353,0.448-0.56,0.792-0.624,1.031
			c-0.064,0.24-0.096,0.665-0.096,1.272V32.31z"/>
		<path d="M188.118,33.673h-3.024c-0.069,0-0.154-0.011-0.362-0.063c-0.215-0.054-0.405-0.162-0.565-0.32l-0.088-0.117l-8.44-15.552
			l-4.659,5.509c-0.407,0.518-0.502,0.759-0.523,0.838c-0.036,0.134-0.079,0.44-0.079,1.143v7.2c0,0.499-0.1,0.832-0.313,1.047
			c-0.213,0.214-0.541,0.316-1.003,0.316h-2.016c-0.464,0-0.792-0.104-1.002-0.316c-0.213-0.211-0.314-0.545-0.314-1.047V2.021
			c0-0.338,0.04-0.815,0.38-1.057c0.203-0.145,0.501-0.212,0.936-0.212h2.016c0.434,0,0.731,0.067,0.937,0.211
			c0.341,0.246,0.38,0.721,0.38,1.058v14.921l9.618-12.254c0.204-0.206,0.378-0.287,0.562-0.287l0.105-0.053l0.062,0.005
			l0.105-0.053l0.087,0.005h3.504c0.517,0,0.741,0.291,0.83,0.465c0.155,0.312,0.054,0.578-0.093,0.725l-4.033,5.393
			c-0.606,0.814-1.101,1.484-1.484,2.012c-0.594,0.814-0.63,0.855-0.672,0.897c0-0.001,0-0.001,0-0.001
			c0.002,0-0.018,0.037-0.044,0.126c0-0.003,0,0.065,0.125,0.287l9.844,18.295c0.084,0.231,0.107,0.361,0.107,0.478
			C189.001,33.097,188.958,33.673,188.118,33.673z M184.912,32.613c0.019,0.013,0.039,0.021,0.062,0.027
			c0.072,0.018,0.123,0.03,0.154,0.034l2.706-0.002l-9.662-17.982c-0.227-0.406-0.296-0.753-0.207-1.053
			c0.073-0.245,0.167-0.419,0.293-0.546c0.033-0.042,0.23-0.311,0.574-0.781c0.384-0.528,0.881-1.202,1.49-2.021l3.731-4.982
			l-3.041-0.002c-0.054,0.019-0.11,0.031-0.166,0.039c-0.044,0.017-0.088,0.03-0.131,0.039l-11.34,14.453V2.021
			c0-0.12-0.008-0.2-0.016-0.25c-0.055-0.008-0.15-0.019-0.301-0.019h-2.016c-0.149,0-0.244,0.01-0.301,0.021
			c-0.008,0.05-0.016,0.129-0.016,0.248V32.31c0,0.211,0.023,0.311,0.036,0.349c0.018-0.009,0.105,0.015,0.281,0.015h2.016
			c0.175,0,0.263-0.021,0.298-0.032c-0.005-0.021,0.019-0.122,0.019-0.331v-7.2c0-0.67,0.036-1.115,0.113-1.402
			c0.085-0.314,0.312-0.699,0.714-1.211l4.763-5.63c0.208-0.21,0.36-0.321,0.508-0.381l0.222-0.043c0.38,0,0.607,0.342,0.693,0.47
			L184.912,32.613z"/>
	</g>
	<g>
		<path d="M200.117,21.894c-0.384,0-0.824,0.008-1.319,0.023c-0.497,0.017-0.953,0.089-1.368,0.216
			c-0.416,0.129-0.761,0.337-1.032,0.624c-0.272,0.288-0.408,0.721-0.408,1.297c0.16,1.6,0.784,2.968,1.872,4.104
			c1.088,1.137,2.479,1.752,4.176,1.848h3.505c1.087,0,1.959-0.216,2.615-0.647c0.656-0.433,1.352-1.016,2.088-1.752
			c0.256-0.256,0.464-0.376,0.624-0.36c0.16,0.017,0.337,0.137,0.528,0.36l1.488,1.439c0.352,0.385,0.408,0.688,0.168,0.912
			c-0.24,0.225-0.488,0.497-0.744,0.816c-0.929,0.864-1.968,1.528-3.12,1.992c-1.152,0.463-2.352,0.695-3.6,0.695h-3.553
			c-1.344,0-2.608-0.256-3.792-0.768s-2.216-1.216-3.096-2.112c-0.88-0.896-1.576-1.928-2.088-3.096s-0.768-2.424-0.768-3.769
			v-6.048c0-1.344,0.256-2.607,0.768-3.792c0.512-1.184,1.208-2.224,2.088-3.12c0.88-0.896,1.912-1.6,3.096-2.111
			s2.448-0.769,3.792-0.769h2.112c1.312,0,2.552,0.257,3.72,0.769s2.185,1.216,3.049,2.111c0.863,0.896,1.552,1.937,2.063,3.12
			c0.512,1.185,0.769,2.448,0.769,3.792v3.024c0,0.225-0.185,0.479-0.553,0.768s-0.728,0.433-1.08,0.433h-2.016H200.117z
			 M210.101,17.669c-0.064-2.399-1.12-4.191-3.168-5.376c-0.929-0.479-1.889-0.72-2.88-0.72h-2.017c-0.64,0-1.24,0.032-1.8,0.096
			c-0.56,0.064-1.097,0.272-1.607,0.624c-0.864,0.641-1.521,1.433-1.969,2.376c-0.448,0.944-0.688,1.944-0.72,3v1.633
			c0.448-0.224,0.84-0.4,1.176-0.528s0.688-0.231,1.057-0.312c0.367-0.079,0.783-0.127,1.248-0.144
			c0.463-0.016,1.048-0.024,1.752-0.024h8.928V17.669z"/>
		<path d="M205.589,33.961h-3.553c-1.407,0-2.749-0.272-3.99-0.809c-1.238-0.535-2.333-1.282-3.254-2.221
			c-0.919-0.936-1.655-2.027-2.189-3.246c-0.537-1.226-0.81-2.562-0.81-3.969v-6.048c0-1.405,0.272-2.748,0.809-3.99
			c0.533-1.234,1.271-2.335,2.19-3.272c0.921-0.938,2.016-1.685,3.254-2.22c1.242-0.537,2.585-0.81,3.99-0.81h2.112
			c1.374,0,2.692,0.272,3.92,0.811c1.223,0.536,2.303,1.283,3.208,2.222c0.903,0.938,1.631,2.037,2.163,3.27
			c0.537,1.243,0.81,2.586,0.81,3.99v3.024c0,0.39-0.243,0.77-0.744,1.161c-0.457,0.357-0.925,0.539-1.389,0.539h-12
			c-0.379,0-0.814,0.008-1.304,0.023c-0.448,0.015-0.865,0.08-1.237,0.194c-0.335,0.104-0.603,0.264-0.815,0.489
			c-0.18,0.19-0.271,0.511-0.271,0.953c0.146,1.429,0.729,2.71,1.733,3.758c1.006,1.051,2.263,1.605,3.843,1.694l3.477-0.001
			c0.982,0,1.771-0.19,2.341-0.565c0.625-0.412,1.302-0.98,2.009-1.688c0.347-0.347,0.648-0.508,0.949-0.508
			c0.376,0.034,0.656,0.209,0.937,0.536l1.456,1.405c0.821,0.897,0.33,1.479,0.161,1.638c-0.22,0.205-0.454,0.462-0.694,0.763
			c-1.021,0.956-2.122,1.659-3.324,2.144C208.167,33.715,206.893,33.961,205.589,33.961z M202.036,8.377
			c-1.268,0-2.477,0.245-3.594,0.728c-1.118,0.483-2.106,1.157-2.938,2.003c-0.833,0.849-1.501,1.847-1.985,2.968
			c-0.482,1.116-0.727,2.325-0.727,3.594v6.048c0,1.269,0.244,2.469,0.726,3.568c0.484,1.106,1.153,2.098,1.986,2.945
			c0.83,0.846,1.818,1.521,2.938,2.004c1.115,0.482,2.324,0.727,3.594,0.727h3.553c1.176,0,2.324-0.222,3.413-0.659
			c1.088-0.438,2.086-1.075,2.966-1.895c0.217-0.278,0.477-0.564,0.727-0.8c-0.019-0.018-0.062-0.098-0.179-0.226l-1.467-1.417
			c-0.118-0.136-0.189-0.191-0.224-0.213c-0.015,0.021-0.097,0.076-0.228,0.207c-0.755,0.755-1.484,1.366-2.166,1.815
			c-0.736,0.485-1.709,0.73-2.891,0.73h-3.505c-1.848-0.104-3.364-0.776-4.537-2.002c-1.162-1.213-1.838-2.693-2.008-4.399
			c-0.003-0.756,0.181-1.308,0.542-1.69c0.33-0.349,0.749-0.604,1.247-0.758c0.458-0.141,0.962-0.22,1.5-0.238
			c0.502-0.016,0.947-0.023,1.336-0.023h12c0.235,0,0.495-0.109,0.771-0.326c0.329-0.258,0.362-0.385,0.362-0.386l-0.001-3.013
			c0-1.267-0.245-2.477-0.728-3.594c-0.485-1.121-1.146-2.121-1.965-2.972c-0.814-0.844-1.787-1.517-2.889-2
			c-1.101-0.482-2.285-0.727-3.52-0.727H202.036z M195.441,20.11v-2.441c0.033-1.135,0.292-2.211,0.768-3.215
			c0.482-1.014,1.196-1.876,2.123-2.562c0.591-0.407,1.207-0.646,1.848-0.72c0.58-0.065,1.204-0.099,1.857-0.099h2.017
			c1.066,0,2.112,0.261,3.109,0.775c2.22,1.283,3.369,3.233,3.438,5.807v1.138h-9.428c-0.697,0-1.276,0.009-1.735,0.024
			c-0.432,0.016-0.822,0.06-1.159,0.133c-0.346,0.075-0.677,0.174-0.984,0.29c-0.323,0.123-0.699,0.294-1.13,0.509L195.441,20.11z
			 M202.036,12.073c-0.616,0-1.202,0.031-1.743,0.093c-0.476,0.055-0.94,0.236-1.381,0.539c-0.779,0.578-1.39,1.314-1.801,2.179
			c-0.416,0.877-0.643,1.819-0.671,2.8v0.829c0.178-0.079,0.344-0.147,0.498-0.206c0.353-0.135,0.731-0.247,1.127-0.334
			c0.396-0.085,0.846-0.138,1.338-0.155c0.468-0.016,1.059-0.024,1.77-0.024h8.428v-0.124c-0.06-2.221-1.015-3.842-2.918-4.943
			c-0.833-0.429-1.725-0.652-2.63-0.652H202.036z"/>
	</g>
	<g>
		<path d="M220.565,8.789c0.096-0.447,0.367-0.655,0.815-0.624h1.44c0.192,0,0.367,0.024,0.528,0.072
			c0.159,0.048,0.271,0.216,0.336,0.504l0.527,2.448c0.736-0.928,1.648-1.712,2.736-2.353c1.088-0.64,2.208-0.96,3.36-0.96
			c1.119,0,2.056,0.168,2.808,0.504s1.56,0.776,2.424,1.32c0.097,0.064,0.216,0.177,0.36,0.336c0.144,0.161,0.151,0.32,0.023,0.48
			c-0.064,0.096-0.168,0.256-0.312,0.479c-0.145,0.225-0.296,0.448-0.456,0.672c-0.192,0.257-0.4,0.528-0.624,0.816
			c-0.128,0.192-0.28,0.296-0.456,0.312c-0.176,0.017-0.408-0.087-0.696-0.312c-0.353-0.288-0.768-0.512-1.248-0.672
			c-0.479-0.16-1.088-0.24-1.823-0.24c-0.576,0-1.112,0.072-1.608,0.216c-0.496,0.145-1,0.345-1.512,0.601
			c-0.929,0.607-1.656,1.328-2.185,2.159c-0.527,0.833-0.792,1.985-0.792,3.456V32.31c0,0.352-0.056,0.583-0.168,0.695
			s-0.312,0.168-0.6,0.168h-2.064c-0.32,0-0.536-0.056-0.647-0.168c-0.112-0.112-0.168-0.344-0.168-0.695V8.789z"/>
		<path d="M223.445,33.673h-2.064c-0.464,0-0.792-0.104-1.003-0.316c-0.213-0.213-0.312-0.546-0.312-1.047l0.011-23.625
			c0.14-0.65,0.584-1.022,1.219-1.022l1.526,0.003c0.237,0,0.463,0.031,0.671,0.093c0.238,0.072,0.549,0.281,0.682,0.874
			l0.319,1.485c0.638-0.65,1.375-1.224,2.202-1.711c1.162-0.684,2.378-1.029,3.614-1.029c1.186,0,2.198,0.185,3.012,0.548
			c0.767,0.342,1.604,0.798,2.486,1.354c0.142,0.094,0.285,0.226,0.464,0.423c0.309,0.347,0.324,0.777,0.044,1.129
			c-0.039,0.061-0.141,0.218-0.281,0.438c-0.149,0.231-0.306,0.462-0.471,0.692c-0.2,0.268-0.41,0.541-0.636,0.832
			c-0.246,0.373-0.576,0.482-0.807,0.503c-0.367,0.021-0.686-0.133-1.048-0.415c-0.312-0.256-0.679-0.452-1.099-0.592
			c-0.427-0.143-0.986-0.215-1.665-0.215c-0.525,0-1.02,0.066-1.47,0.196c-0.464,0.135-0.944,0.326-1.427,0.567
			c-0.812,0.535-1.497,1.211-1.986,1.98c-0.474,0.748-0.714,1.82-0.714,3.188V32.31c0,0.501-0.1,0.834-0.314,1.049
			C224.186,33.57,223.874,33.673,223.445,33.673z M221.111,32.657c0.031,0,0.117,0.016,0.27,0.016h2.064
			c0.147,0,0.22-0.019,0.248-0.028c-0.006-0.018,0.02-0.116,0.02-0.335V18.005c0-1.56,0.293-2.813,0.869-3.724
			c0.566-0.891,1.352-1.668,2.334-2.31c0.586-0.297,1.123-0.511,1.646-0.663c0.541-0.156,1.129-0.235,1.748-0.235
			c0.786,0,1.453,0.09,1.981,0.266c0.535,0.179,1.008,0.434,1.406,0.76c0.225,0.174,0.331,0.197,0.346,0.2
			c-0.004-0.002,0.026-0.02,0.074-0.091c0.243-0.314,0.449-0.584,0.64-0.839c0.149-0.208,0.296-0.425,0.436-0.643
			c0.117-0.183,0.209-0.323,0.274-0.423c-0.114-0.12-0.175-0.168-0.203-0.187c-0.832-0.523-1.626-0.956-2.351-1.28
			c-0.684-0.305-1.56-0.46-2.604-0.46c-1.056,0-2.102,0.3-3.106,0.891c-1.03,0.606-1.904,1.357-2.599,2.232l-0.657,0.829
			l-0.751-3.482c-0.028-0.13-0.061-0.172-0.061-0.172c-0.05,0.007-0.172-0.01-0.314-0.01h-1.44
			c-0.184,0.001-0.266-0.004-0.315,0.183V32.31c0,0.21,0.023,0.31,0.036,0.349C221.103,32.657,221.106,32.657,221.111,32.657z"/>
	</g>
	<g>
		<path d="M239.524,14.357c0-1.344,0.271-2.432,0.816-3.264c0.544-0.832,1.279-1.488,2.208-1.969
			c0.928-0.479,1.992-0.808,3.191-0.983c1.2-0.176,2.473-0.265,3.816-0.265c1.44,0,2.784,0.2,4.032,0.601s2.399,1.112,3.456,2.136
			c0.288,0.257,0.527,0.521,0.72,0.792c0.192,0.272,0.111,0.568-0.24,0.888l-1.392,1.44c-0.257,0.225-0.456,0.344-0.601,0.36
			c-0.144,0.016-0.344-0.104-0.6-0.36c-0.257-0.256-0.528-0.52-0.816-0.792c-0.287-0.271-0.607-0.487-0.96-0.648
			c-0.607-0.319-1.199-0.52-1.775-0.6c-0.576-0.079-1.185-0.12-1.824-0.12c-0.672,0-1.376,0.017-2.112,0.048
			c-0.736,0.032-1.4,0.137-1.992,0.312s-1.088,0.448-1.487,0.815c-0.4,0.368-0.601,0.904-0.601,1.608
			c-0.032,0.992,0.312,1.775,1.032,2.352s1.615,1.064,2.688,1.464c1.071,0.401,2.239,0.776,3.504,1.129
			c1.264,0.352,2.432,0.808,3.504,1.367c1.071,0.561,1.968,1.289,2.688,2.185c0.721,0.896,1.08,2.08,1.08,3.552
			c0,1.312-0.272,2.424-0.815,3.336c-0.545,0.912-1.28,1.641-2.208,2.184c-0.929,0.544-2.001,0.937-3.216,1.177
			c-1.217,0.239-2.48,0.359-3.792,0.359c-1.633,0-3.161-0.152-4.585-0.456s-2.744-1.063-3.96-2.279h-0.048
			c-0.256-0.319-0.496-0.592-0.72-0.816c-0.225-0.224-0.144-0.512,0.24-0.864l1.439-1.439c0.224-0.224,0.408-0.344,0.553-0.36
			c0.144-0.016,0.343,0.104,0.6,0.36c0.256,0.256,0.528,0.521,0.816,0.792c0.287,0.272,0.607,0.488,0.96,0.647
			c0.768,0.417,1.535,0.641,2.304,0.672c0.768,0.033,1.567,0.049,2.4,0.049c0.672,0,1.367-0.032,2.088-0.097
			c0.72-0.063,1.392-0.216,2.016-0.456c0.624-0.239,1.144-0.575,1.56-1.008c0.416-0.432,0.641-1.032,0.673-1.8
			c-0.032-0.928-0.408-1.647-1.129-2.16c-0.72-0.512-1.624-0.951-2.712-1.32c-1.088-0.367-2.264-0.72-3.527-1.056
			c-1.265-0.336-2.433-0.8-3.504-1.392c-1.073-0.592-1.969-1.36-2.688-2.305C239.884,17.229,239.524,15.958,239.524,14.357z"/>
		<path d="M247.828,33.961c-1.658,0-3.236-0.157-4.689-0.467c-1.455-0.311-2.819-1.073-4.06-2.269h-0.036l-0.198-0.188
			c-0.243-0.304-0.471-0.562-0.684-0.776c-0.181-0.18-0.274-0.402-0.27-0.643c0.007-0.315,0.179-0.623,0.526-0.942l1.424-1.425
			c0.312-0.312,0.583-0.473,0.85-0.504c0.319-0.001,0.656,0.151,1.009,0.503c0.254,0.254,0.522,0.515,0.807,0.782
			c0.246,0.233,0.522,0.42,0.823,0.556c0.729,0.395,1.43,0.601,2.118,0.628c1.364,0.059,2.833,0.096,4.423-0.046
			c0.67-0.059,1.303-0.202,1.881-0.425c0.552-0.212,1.016-0.51,1.379-0.888c0.332-0.345,0.507-0.826,0.533-1.474
			c-0.026-0.732-0.327-1.312-0.919-1.732c-0.675-0.479-1.543-0.901-2.583-1.254c-1.08-0.365-2.257-0.717-3.495-1.046
			c-1.298-0.345-2.515-0.828-3.617-1.438c-1.127-0.622-2.084-1.442-2.844-2.439c-0.785-1.028-1.183-2.414-1.183-4.118
			c0-1.438,0.302-2.628,0.898-3.538c0.589-0.9,1.396-1.621,2.396-2.139c0.974-0.503,2.1-0.851,3.349-1.034
			c2.561-0.375,5.603-0.438,8.073,0.354c1.315,0.422,2.544,1.181,3.651,2.253c0.299,0.266,0.566,0.561,0.78,0.862
			c0.163,0.231,0.46,0.846-0.312,1.547l-1.368,1.418c-0.377,0.332-0.646,0.479-0.903,0.51c-0.005,0-0.01,0-0.015,0
			c-0.363,0-0.655-0.162-0.996-0.505c-0.252-0.251-0.521-0.512-0.806-0.781c-0.244-0.231-0.521-0.419-0.824-0.557
			c-0.579-0.304-1.121-0.488-1.636-0.56c-1.168-0.159-2.452-0.127-3.847-0.067c-0.69,0.029-1.32,0.128-1.871,0.292
			c-0.515,0.152-0.949,0.39-1.291,0.704c-0.296,0.271-0.439,0.678-0.439,1.24c-0.027,0.849,0.249,1.484,0.845,1.961
			c0.676,0.541,1.534,1.008,2.551,1.386c1.04,0.39,2.205,0.766,3.463,1.116c1.29,0.358,2.502,0.832,3.602,1.405
			c1.129,0.591,2.086,1.369,2.846,2.314c0.79,0.982,1.19,2.283,1.19,3.865c0,1.396-0.298,2.604-0.886,3.592
			c-0.588,0.983-1.39,1.776-2.385,2.359c-0.974,0.57-2.108,0.985-3.372,1.235C250.472,33.837,249.164,33.961,247.828,33.961z
			 M239.523,30.286l0.114,0.086c1.141,1.141,2.389,1.862,3.711,2.144c2.491,0.533,5.52,0.616,8.176,0.096
			c1.153-0.229,2.184-0.604,3.06-1.118c0.849-0.496,1.532-1.172,2.031-2.009c0.494-0.829,0.745-1.866,0.745-3.079
			c0-1.349-0.326-2.438-0.97-3.238c-0.673-0.838-1.524-1.529-2.529-2.055c-1.037-0.542-2.184-0.988-3.406-1.329
			c-1.286-0.358-2.479-0.742-3.546-1.143c-1.115-0.415-2.065-0.934-2.825-1.541c-0.847-0.678-1.257-1.606-1.22-2.759
			c0-0.83,0.257-1.495,0.762-1.96c0.455-0.418,1.021-0.729,1.684-0.927c0.63-0.187,1.341-0.299,2.113-0.333
			c1.459-0.061,2.795-0.093,4.026,0.077c0.631,0.088,1.283,0.307,1.939,0.652c0.378,0.172,0.746,0.421,1.071,0.728
			c0.291,0.275,0.565,0.542,0.825,0.801c0.11,0.11,0.184,0.167,0.228,0.196c0.052-0.029,0.146-0.091,0.291-0.218l1.361-1.412
			c0.185-0.169,0.201-0.246,0.201-0.247c-0.18-0.244-0.396-0.482-0.654-0.712c-1.011-0.979-2.108-1.658-3.275-2.032
			c-2.325-0.746-5.208-0.673-7.624-0.317c-1.139,0.167-2.159,0.48-3.034,0.933c-0.846,0.438-1.525,1.042-2.019,1.798
			c-0.488,0.745-0.735,1.751-0.735,2.99c0,1.48,0.329,2.662,0.978,3.512c0.675,0.886,1.527,1.616,2.532,2.171
			c1.031,0.569,2.172,1.022,3.391,1.346c1.26,0.335,2.457,0.693,3.56,1.065c1.132,0.384,2.088,0.851,2.842,1.387
			c0.851,0.604,1.301,1.463,1.339,2.55c-0.038,0.929-0.312,1.644-0.812,2.164c-0.466,0.484-1.051,0.863-1.741,1.128
			c-0.665,0.256-1.389,0.42-2.15,0.487c-1.633,0.146-3.151,0.109-4.554,0.05c-0.841-0.034-1.689-0.281-2.521-0.732
			c-0.37-0.166-0.739-0.415-1.065-0.725c-0.291-0.273-0.567-0.542-0.826-0.801c-0.105-0.104-0.178-0.161-0.222-0.191
			c-0.045,0.029-0.118,0.086-0.224,0.191l-1.439,1.439c-0.105,0.097-0.161,0.166-0.19,0.208
			C239.112,29.803,239.312,30.029,239.523,30.286z"/>
	</g>
	<g>
		<path d="M262.948,42.102V8.789c0.032-0.447,0.288-0.655,0.769-0.624h1.439c0.192,0,0.368,0.024,0.528,0.072
			s0.271,0.216,0.336,0.504l0.48,2.592l0.287-0.384c0.832-0.991,1.792-1.752,2.881-2.28c1.087-0.527,2.191-0.792,3.312-0.792h2.832
			c1.344,0,2.607,0.257,3.792,0.769c1.184,0.512,2.208,1.208,3.072,2.088c0.864,0.881,1.552,1.912,2.063,3.096
			c0.512,1.185,0.769,2.448,0.769,3.792v6.145c0,1.312-0.257,2.561-0.769,3.743c-0.512,1.185-1.199,2.217-2.063,3.097
			s-1.889,1.576-3.072,2.088c-1.185,0.512-2.448,0.768-3.792,0.768h-2.832c-1.185,0-2.345-0.328-3.479-0.983
			c-1.137-0.656-2.121-1.561-2.952-2.712v12.336c0,0.544-0.257,0.815-0.769,0.815h-2.063
			C263.203,42.917,262.948,42.645,262.948,42.102z M273.028,11.573c-0.448,0-1.032,0.089-1.752,0.264
			c-0.72,0.177-1.424,0.488-2.111,0.937c-0.689,0.448-1.289,1.072-1.801,1.872s-0.784,1.84-0.815,3.12v4.56
			c0,1.248,0.224,2.353,0.672,3.312c0.447,0.96,0.991,1.76,1.632,2.399c0.64,0.641,1.336,1.128,2.088,1.464s1.447,0.504,2.088,0.504
			h2.688c0.799,0,1.56-0.151,2.279-0.456c0.721-0.304,1.36-0.728,1.921-1.271c0.559-0.544,1.008-1.168,1.344-1.872
			c0.336-0.703,0.535-1.472,0.6-2.304v-6.769c-0.064-1.119-0.376-2.104-0.936-2.952c-0.561-0.847-1.289-1.543-2.185-2.088
			c-0.479-0.256-0.96-0.439-1.439-0.552c-0.48-0.111-1.008-0.168-1.584-0.168H273.028z"/>
		<path d="M265.78,43.417h-2.063c-0.794,0-1.269-0.492-1.269-1.315V8.789c0.051-0.719,0.49-1.127,1.178-1.127l1.53,0.003
			c0.238,0,0.465,0.031,0.672,0.093c0.237,0.071,0.548,0.28,0.681,0.874l0.288,1.557c0.793-0.84,1.68-1.496,2.654-1.97
			c1.151-0.559,2.339-0.842,3.529-0.842h2.832c1.404,0,2.747,0.272,3.99,0.81c1.238,0.535,2.325,1.274,3.23,2.196
			c0.904,0.921,1.633,2.014,2.166,3.248c0.537,1.243,0.81,2.586,0.81,3.99v6.145c0,1.374-0.272,2.7-0.81,3.941
			c-0.534,1.236-1.263,2.329-2.166,3.249c-0.905,0.922-1.992,1.661-3.23,2.196c-1.242,0.536-2.585,0.809-3.99,0.809h-2.832
			c-1.268,0-2.522-0.354-3.729-1.051c-0.804-0.464-1.541-1.051-2.202-1.753v10.944C267.048,42.925,266.574,43.417,265.78,43.417z
			 M263.681,8.665c-0.172,0-0.202,0.021-0.202,0.021s-0.024,0.032-0.032,0.14l0.001,33.276c0,0.315,0.079,0.315,0.269,0.315h2.063
			c0.189,0,0.269,0,0.269-0.315V28.219l0.905,1.254c0.786,1.089,1.727,1.954,2.797,2.572c1.053,0.607,2.14,0.916,3.229,0.916h2.832
			c1.269,0,2.478-0.244,3.594-0.727c1.118-0.483,2.099-1.149,2.914-1.979c0.816-0.831,1.476-1.821,1.961-2.944
			c0.482-1.116,0.728-2.309,0.728-3.545v-6.145c0-1.267-0.245-2.477-0.728-3.594c-0.484-1.121-1.145-2.111-1.961-2.943
			c-0.815-0.83-1.796-1.496-2.914-1.979c-1.117-0.482-2.327-0.728-3.594-0.728h-2.832c-1.038,0-2.079,0.25-3.094,0.742
			c-1.019,0.494-1.932,1.218-2.716,2.151l-0.953,1.276l-0.688-3.715c-0.026-0.115-0.059-0.157-0.059-0.158
			c-0.043,0.011-0.174-0.009-0.314-0.009h-1.439C263.703,8.665,263.692,8.665,263.681,8.665z M275.716,30.505h-2.688
			c-0.708,0-1.479-0.185-2.292-0.548c-0.806-0.359-1.559-0.887-2.237-1.566c-0.679-0.678-1.262-1.533-1.731-2.542
			c-0.477-1.021-0.719-2.207-0.719-3.523v-4.56c0.033-1.378,0.334-2.515,0.895-3.39c0.548-0.857,1.204-1.537,1.949-2.021
			c0.729-0.476,1.491-0.813,2.265-1.003c0.771-0.188,1.383-0.278,1.871-0.278h2.688c0.608,0,1.179,0.061,1.697,0.181
			c0.522,0.123,1.048,0.323,1.562,0.598c0.979,0.596,1.768,1.349,2.366,2.253c0.606,0.92,0.948,1.996,1.018,3.2l0.001,6.797
			c-0.07,0.931-0.288,1.766-0.648,2.52c-0.358,0.751-0.846,1.43-1.446,2.015c-0.604,0.586-1.302,1.048-2.075,1.374
			C277.413,30.338,276.581,30.505,275.716,30.505z M273.028,12.073c-0.402,0-0.952,0.084-1.634,0.25
			c-0.663,0.162-1.321,0.455-1.956,0.869c-0.626,0.406-1.182,0.986-1.653,1.723c-0.46,0.719-0.708,1.683-0.736,2.862v4.548
			c0,1.17,0.21,2.213,0.625,3.101c0.421,0.903,0.936,1.662,1.532,2.258c0.592,0.593,1.244,1.051,1.938,1.361
			c0.684,0.305,1.317,0.46,1.884,0.46h2.688c0.73,0,1.432-0.14,2.084-0.416c0.66-0.278,1.254-0.672,1.768-1.17
			c0.516-0.502,0.934-1.084,1.241-1.729c0.307-0.643,0.493-1.358,0.553-2.128l-0.002-6.729c-0.059-0.997-0.346-1.907-0.853-2.677
			c-0.518-0.78-1.199-1.433-2.027-1.937c-0.413-0.219-0.856-0.39-1.294-0.491c-0.442-0.104-0.938-0.155-1.47-0.155H273.028z"/>
	</g>
	<g>
		<path d="M290.787,25.062c0-0.704,0.151-1.456,0.456-2.256c0.304-0.8,0.792-1.536,1.464-2.208c0.672-0.673,1.56-1.231,2.664-1.681
			c1.104-0.447,2.472-0.672,4.104-0.672h4.944c0.735,0,1.472,0.024,2.208,0.072c0.735,0.048,1.392,0.248,1.968,0.6v-1.632
			c0-1.023-0.312-1.992-0.936-2.904c-0.624-0.911-1.368-1.607-2.232-2.088c-0.96-0.479-1.92-0.72-2.88-0.72h-2.592
			c-1.024,0-1.984,0.24-2.88,0.72c-0.385,0.161-0.721,0.368-1.009,0.624c-0.287,0.257-0.56,0.528-0.815,0.816
			c-0.257,0.257-0.456,0.384-0.6,0.384c-0.145,0-0.329-0.127-0.553-0.384l-1.439-1.44c-0.225-0.191-0.345-0.359-0.36-0.504
			c-0.017-0.144,0.104-0.344,0.36-0.6c0.063-0.096,0.151-0.184,0.264-0.265c0.111-0.079,0.216-0.184,0.312-0.312
			c0.896-0.864,1.927-1.536,3.096-2.016c1.168-0.48,2.359-0.721,3.576-0.721h2.688c1.312,0,2.552,0.257,3.72,0.769
			s2.192,1.208,3.072,2.088c0.88,0.881,1.576,1.912,2.088,3.096c0.512,1.185,0.769,2.433,0.769,3.744v15.6h-1.872
			c-0.704,0-1.16-0.224-1.368-0.672c-0.209-0.447-0.345-0.96-0.408-1.536c-0.704,0.705-1.616,1.297-2.735,1.776
			c-1.121,0.48-2.208,0.72-3.265,0.72h-2.112c-1.344,0-2.6-0.185-3.768-0.552c-1.168-0.368-2.192-0.912-3.072-1.632
			s-1.576-1.6-2.088-2.64S290.787,26.405,290.787,25.062z M308.595,23.717c0-0.479-0.072-0.84-0.216-1.079
			c-0.144-0.24-0.384-0.416-0.72-0.528s-0.776-0.176-1.32-0.192c-0.545-0.016-1.2-0.039-1.968-0.071h-4.896
			c-0.641,0.032-1.248,0.104-1.823,0.216c-0.576,0.112-1.08,0.288-1.513,0.527c-0.432,0.24-0.776,0.561-1.032,0.96
			c-0.256,0.401-0.384,0.905-0.384,1.513c0,1.439,0.472,2.616,1.416,3.527c0.943,0.912,2.392,1.385,4.344,1.416h2.064
			c0.703,0,1.416-0.096,2.136-0.288c0.721-0.191,1.368-0.463,1.944-0.815c0.576-0.352,1.048-0.775,1.416-1.272
			c0.367-0.495,0.552-1.08,0.552-1.752V23.717z"/>
		<path d="M302.595,33.961h-2.112c-1.387,0-2.704-0.193-3.918-0.575c-1.224-0.386-2.313-0.965-3.238-1.722
			c-0.933-0.762-1.679-1.706-2.22-2.806c-0.544-1.104-0.819-2.382-0.819-3.797c0-0.764,0.164-1.582,0.489-2.434
			c0.327-0.862,0.857-1.664,1.577-2.384c0.714-0.715,1.665-1.317,2.829-1.79c1.16-0.471,2.604-0.709,4.292-0.709h4.944
			c0.738,0,1.492,0.024,2.24,0.073c0.51,0.033,0.989,0.134,1.436,0.302v-0.835c0-0.917-0.285-1.799-0.849-2.622
			c-0.577-0.843-1.271-1.493-2.062-1.934c-0.866-0.432-1.76-0.656-2.637-0.656h-2.592c-0.936,0-1.825,0.223-2.644,0.66
			c-0.377,0.16-0.669,0.341-0.913,0.558c-0.271,0.243-0.53,0.501-0.773,0.774c-0.387,0.389-0.681,0.552-0.974,0.552
			c-0.4,0-0.723-0.317-0.93-0.556l-1.416-1.415c-0.3-0.253-0.474-0.524-0.504-0.804c-0.045-0.388,0.238-0.737,0.473-0.975
			c0.092-0.128,0.212-0.245,0.355-0.349c0.072-0.051,0.141-0.12,0.207-0.208c0.988-0.963,2.083-1.676,3.305-2.177
			c1.223-0.503,2.489-0.758,3.766-0.758h2.688c1.374,0,2.692,0.272,3.92,0.811c1.221,0.534,2.306,1.272,3.226,2.192
			c0.922,0.923,1.659,2.017,2.193,3.251c0.537,1.243,0.81,2.57,0.81,3.942v16.1h-2.372c-1.137,0-1.618-0.522-1.821-0.961
			c-0.115-0.245-0.21-0.509-0.285-0.79c-0.626,0.489-1.365,0.918-2.208,1.279C304.879,33.705,303.715,33.961,302.595,33.961z
			 M299.475,18.745c-1.559,0-2.876,0.214-3.916,0.636c-1.038,0.422-1.879,0.95-2.498,1.57c-0.619,0.619-1.073,1.303-1.35,2.032
			c-0.281,0.737-0.424,1.437-0.424,2.078c0,1.261,0.241,2.39,0.716,3.355c0.478,0.97,1.136,1.802,1.956,2.474
			c0.826,0.676,1.804,1.194,2.906,1.542c1.115,0.351,2.333,0.528,3.617,0.528h2.112c0.983,0,2.016-0.229,3.067-0.68
			c1.057-0.452,1.924-1.014,2.579-1.67l0.736-0.737l0.114,1.036c0.058,0.521,0.18,0.984,0.364,1.379
			c0.044,0.096,0.178,0.384,0.915,0.384h1.372v-15.1c0-1.235-0.245-2.429-0.728-3.546c-0.483-1.118-1.15-2.107-1.982-2.94
			c-0.832-0.832-1.814-1.499-2.919-1.983c-1.101-0.482-2.285-0.727-3.52-0.727h-2.688c-1.145,0-2.284,0.229-3.386,0.683
			c-1.104,0.453-2.093,1.097-2.938,1.913c-0.076,0.111-0.219,0.252-0.37,0.359c-0.061,0.044-0.107,0.09-0.137,0.134l-0.064,0.078
			c-0.099,0.099-0.155,0.168-0.186,0.213c0.028,0.035,0.076,0.087,0.157,0.155l1.469,1.468c0.098,0.11,0.164,0.173,0.207,0.207
			c0.049-0.033,0.126-0.095,0.238-0.207c0.242-0.273,0.529-0.562,0.836-0.836c0.327-0.29,0.713-0.53,1.148-0.712
			c0.923-0.497,1.971-0.759,3.073-0.759h2.592c1.033,0,2.077,0.26,3.104,0.772c0.947,0.526,1.756,1.28,2.421,2.253
			c0.68,0.992,1.023,2.064,1.023,3.187v2.522l-0.761-0.464c-0.504-0.308-1.089-0.485-1.739-0.527
			c-0.728-0.047-1.459-0.071-2.176-0.071H299.475z M302.547,30.505h-2.064c-2.082-0.033-3.657-0.557-4.691-1.557
			c-1.04-1.004-1.568-2.312-1.568-3.887c0-0.701,0.155-1.301,0.462-1.781c0.301-0.469,0.708-0.849,1.211-1.128
			c0.478-0.265,1.036-0.46,1.66-0.582c0.591-0.115,1.229-0.19,1.894-0.224l0.025-0.001h4.896c0.786,0.032,1.439,0.056,1.982,0.071
			c0.602,0.019,1.08,0.09,1.464,0.218c0.452,0.151,0.785,0.402,0.991,0.746c0.192,0.321,0.286,0.759,0.286,1.336v2.16
			c0,0.778-0.219,1.468-0.65,2.05c-0.404,0.546-0.929,1.018-1.557,1.401c-0.614,0.376-1.312,0.669-2.077,0.872
			C304.055,30.402,303.292,30.505,302.547,30.505z M299.488,22.346c-0.613,0.031-1.199,0.101-1.74,0.207
			c-0.521,0.102-0.981,0.261-1.366,0.474c-0.356,0.198-0.644,0.465-0.854,0.792c-0.202,0.317-0.305,0.735-0.305,1.243
			c0,1.312,0.413,2.348,1.263,3.168c0.847,0.817,2.193,1.246,4.005,1.275h2.057c0.658,0,1.334-0.091,2.007-0.271
			c0.671-0.178,1.28-0.434,1.812-0.759c0.519-0.316,0.947-0.701,1.275-1.144c0.305-0.411,0.453-0.887,0.453-1.454v-2.16
			c0-0.506-0.091-0.731-0.145-0.822c-0.081-0.136-0.228-0.237-0.449-0.311c-0.286-0.096-0.683-0.152-1.178-0.167
			c-0.546-0.016-1.203-0.039-1.973-0.071H299.488z"/>
	</g>
	<g>
		<path d="M316.851,17.573c0-1.312,0.256-2.56,0.769-3.744c0.511-1.184,1.207-2.215,2.088-3.096c0.88-0.88,1.911-1.576,3.096-2.088
			c1.184-0.512,2.448-0.769,3.792-0.769h3.552c1.279,0,2.488,0.232,3.624,0.696s2.152,1.128,3.048,1.992
			c0.353,0.288,0.624,0.561,0.816,0.815c0.192,0.257,0.127,0.561-0.192,0.912l-1.487,1.393c-0.225,0.224-0.401,0.344-0.528,0.359
			c-0.128,0.017-0.32-0.104-0.576-0.359c-0.704-0.64-1.448-1.152-2.231-1.536c-0.785-0.384-1.625-0.576-2.521-0.576h-3.504
			c-0.545,0-1.04,0.057-1.488,0.168c-0.448,0.112-0.929,0.296-1.439,0.552c-0.929,0.545-1.673,1.241-2.232,2.088
			c-0.561,0.849-0.872,1.817-0.936,2.904h-0.048v6.769h0.048c0.063,1.088,0.375,2.056,0.936,2.903
			c0.56,0.849,1.304,1.545,2.232,2.088c0.511,0.257,0.991,0.44,1.439,0.553s0.943,0.168,1.488,0.168h3.504
			c1.023-0.064,1.888-0.28,2.592-0.648c0.704-0.367,1.424-0.84,2.16-1.416c0.256-0.256,0.448-0.384,0.576-0.384
			c0.127,0,0.304,0.128,0.528,0.384l1.487,1.344c0.319,0.417,0.368,0.744,0.145,0.984c-0.225,0.24-0.48,0.488-0.769,0.744
			c-0.896,0.864-1.912,1.528-3.048,1.992c-1.136,0.463-2.345,0.695-3.624,0.695h-3.552c-1.344,0-2.608-0.256-3.792-0.768
			c-1.185-0.512-2.216-1.216-3.096-2.112c-0.881-0.896-1.577-1.928-2.088-3.096c-0.513-1.168-0.769-2.424-0.769-3.769V17.573z"/>
		<path d="M330.147,33.961h-3.552c-1.407,0-2.749-0.272-3.99-0.809c-1.237-0.534-2.332-1.282-3.254-2.221
			c-0.92-0.936-1.656-2.027-2.189-3.246c-0.538-1.225-0.811-2.561-0.811-3.969v-6.144c0-1.375,0.272-2.701,0.81-3.942
			c0.532-1.234,1.271-2.328,2.193-3.251c0.922-0.922,2.016-1.659,3.251-2.193c1.242-0.537,2.585-0.81,3.99-0.81h3.552
			c1.339,0,2.621,0.247,3.813,0.733c1.19,0.486,2.269,1.191,3.206,2.096c0.348,0.282,0.65,0.585,0.868,0.874
			c0.161,0.216,0.462,0.797-0.222,1.549l-1.516,1.422c-0.307,0.305-0.56,0.46-0.809,0.49c-0.341-0.002-0.641-0.151-0.991-0.502
			c-0.649-0.59-1.361-1.08-2.098-1.44c-0.713-0.349-1.487-0.525-2.301-0.525h-3.504c-0.498,0-0.958,0.052-1.368,0.153
			c-0.412,0.104-0.861,0.276-1.336,0.514c-0.828,0.487-1.524,1.138-2.039,1.916c-0.508,0.77-0.795,1.664-0.854,2.658l-0.047,0.471
			l0.047,6.239c0.059,0.994,0.346,1.888,0.854,2.657c0.515,0.78,1.211,1.431,2.067,1.932c0.445,0.223,0.895,0.396,1.309,0.499
			c0.405,0.102,0.865,0.153,1.367,0.153h3.504c0.918-0.059,1.723-0.258,2.36-0.592c0.671-0.35,1.371-0.81,2.083-1.366
			c0.665-0.674,1.126-0.69,1.789,0.063l1.446,1.303c0.702,0.903,0.408,1.446,0.176,1.696c-0.235,0.251-0.502,0.51-0.803,0.777
			c-0.922,0.89-2,1.595-3.19,2.081C332.767,33.715,331.485,33.961,330.147,33.961z M326.595,8.377c-1.268,0-2.477,0.245-3.594,0.728
			c-1.119,0.483-2.108,1.15-2.94,1.982c-0.833,0.833-1.5,1.822-1.982,2.94c-0.482,1.115-0.728,2.309-0.728,3.546v6.144
			c0,1.27,0.244,2.47,0.727,3.567c0.484,1.107,1.152,2.099,1.986,2.946c0.831,0.847,1.819,1.521,2.938,2.004
			c1.115,0.482,2.324,0.727,3.594,0.727h3.552c1.208,0,2.363-0.222,3.436-0.658c1.072-0.438,2.044-1.073,2.889-1.889
			c0.291-0.259,0.536-0.496,0.751-0.727l0,0c0.003,0,0.005-0.102-0.176-0.339l-1.426-1.276c-0.093-0.104-0.159-0.168-0.204-0.208
			c-0.049,0.037-0.118,0.097-0.212,0.19c-0.806,0.635-1.558,1.128-2.282,1.506c-0.763,0.398-1.702,0.636-2.792,0.704l-3.535,0.001
			c-0.584,0-1.125-0.062-1.609-0.183c-0.486-0.122-1.005-0.321-1.543-0.592c-1.019-0.594-1.825-1.349-2.425-2.259
			c-0.524-0.793-0.852-1.692-0.975-2.679h-0.044l-0.048-0.5v-7.269h0.092c0.123-0.986,0.45-1.886,0.975-2.68
			c0.6-0.908,1.406-1.662,2.396-2.244c0.568-0.285,1.087-0.483,1.571-0.605c0.488-0.121,1.03-0.183,1.609-0.183h3.504
			c0.967,0,1.889,0.211,2.74,0.627c0.821,0.402,1.611,0.946,2.348,1.615c0.101,0.1,0.171,0.159,0.218,0.194
			c0.04-0.032,0.106-0.088,0.198-0.179l1.498-1.403c0.137-0.153,0.142-0.238,0.142-0.239c-0.177-0.231-0.423-0.477-0.74-0.736
			c-0.876-0.843-1.848-1.478-2.921-1.916c-1.07-0.438-2.227-0.659-3.435-0.659H326.595z"/>
	</g>
	<g>
		<path d="M350.306,21.894c-0.384,0-0.824,0.008-1.319,0.023c-0.497,0.017-0.953,0.089-1.368,0.216
			c-0.416,0.129-0.761,0.337-1.032,0.624c-0.272,0.288-0.408,0.721-0.408,1.297c0.16,1.6,0.784,2.968,1.872,4.104
			c1.088,1.137,2.479,1.752,4.176,1.848h3.505c1.087,0,1.959-0.216,2.615-0.647c0.656-0.433,1.352-1.016,2.088-1.752
			c0.256-0.256,0.464-0.376,0.624-0.36c0.16,0.017,0.337,0.137,0.528,0.36l1.488,1.439c0.352,0.385,0.408,0.688,0.168,0.912
			c-0.24,0.225-0.488,0.497-0.744,0.816c-0.929,0.864-1.968,1.528-3.12,1.992c-1.152,0.463-2.352,0.695-3.6,0.695h-3.553
			c-1.344,0-2.608-0.256-3.792-0.768s-2.216-1.216-3.096-2.112c-0.88-0.896-1.576-1.928-2.088-3.096s-0.768-2.424-0.768-3.769
			v-6.048c0-1.344,0.256-2.607,0.768-3.792c0.512-1.184,1.208-2.224,2.088-3.12c0.88-0.896,1.912-1.6,3.096-2.111
			s2.448-0.769,3.792-0.769h2.112c1.312,0,2.552,0.257,3.72,0.769s2.185,1.216,3.049,2.111c0.863,0.896,1.552,1.937,2.063,3.12
			c0.512,1.185,0.769,2.448,0.769,3.792v3.024c0,0.225-0.185,0.479-0.553,0.768s-0.728,0.433-1.08,0.433h-2.016H350.306z
			 M360.29,17.669c-0.064-2.399-1.12-4.191-3.168-5.376c-0.929-0.479-1.889-0.72-2.88-0.72h-2.017c-0.64,0-1.24,0.032-1.8,0.096
			c-0.56,0.064-1.097,0.272-1.607,0.624c-0.864,0.641-1.521,1.433-1.969,2.376c-0.448,0.944-0.688,1.944-0.72,3v1.633
			c0.448-0.224,0.84-0.4,1.176-0.528s0.688-0.231,1.057-0.312c0.367-0.079,0.783-0.127,1.248-0.144
			c0.463-0.016,1.048-0.024,1.752-0.024h8.928V17.669z"/>
		<path d="M355.779,33.961h-3.553c-1.407,0-2.749-0.272-3.99-0.809c-1.238-0.535-2.333-1.282-3.254-2.221
			c-0.919-0.936-1.655-2.027-2.189-3.246c-0.537-1.226-0.81-2.562-0.81-3.969v-6.048c0-1.405,0.272-2.748,0.809-3.99
			c0.533-1.234,1.271-2.335,2.19-3.272c0.921-0.938,2.016-1.685,3.254-2.22c1.242-0.537,2.585-0.81,3.99-0.81h2.112
			c1.374,0,2.692,0.272,3.92,0.811c1.223,0.536,2.303,1.283,3.208,2.222c0.903,0.938,1.631,2.037,2.163,3.27
			c0.537,1.243,0.81,2.586,0.81,3.99v3.024c0,0.39-0.243,0.77-0.744,1.161c-0.457,0.357-0.925,0.539-1.389,0.539h-12
			c-0.379,0-0.814,0.008-1.304,0.023c-0.448,0.015-0.865,0.08-1.237,0.194c-0.335,0.104-0.603,0.264-0.815,0.489
			c-0.18,0.19-0.271,0.511-0.271,0.953c0.146,1.429,0.729,2.71,1.733,3.758c1.006,1.051,2.263,1.605,3.843,1.694l3.477-0.001
			c0.982,0,1.771-0.19,2.341-0.565c0.625-0.412,1.302-0.98,2.009-1.688c0.347-0.347,0.648-0.508,0.949-0.508
			c0.376,0.034,0.656,0.209,0.937,0.536l1.456,1.405c0.821,0.897,0.33,1.479,0.161,1.638c-0.22,0.205-0.454,0.462-0.694,0.763
			c-1.021,0.956-2.122,1.659-3.324,2.144C358.357,33.715,357.082,33.961,355.779,33.961z M352.226,8.377
			c-1.268,0-2.477,0.245-3.594,0.728c-1.118,0.483-2.106,1.157-2.938,2.003c-0.833,0.849-1.501,1.847-1.985,2.968
			c-0.482,1.116-0.727,2.325-0.727,3.594v6.048c0,1.269,0.244,2.469,0.726,3.568c0.484,1.106,1.153,2.098,1.986,2.945
			c0.83,0.846,1.818,1.521,2.938,2.004c1.115,0.482,2.324,0.727,3.594,0.727h3.553c1.176,0,2.324-0.222,3.413-0.659
			c1.088-0.438,2.086-1.075,2.966-1.895c0.217-0.278,0.477-0.564,0.727-0.8c-0.019-0.018-0.062-0.098-0.179-0.226l-1.467-1.417
			c-0.118-0.136-0.189-0.191-0.224-0.213c-0.015,0.021-0.097,0.076-0.228,0.207c-0.755,0.755-1.484,1.366-2.166,1.815
			c-0.736,0.485-1.709,0.73-2.891,0.73h-3.505c-1.848-0.104-3.364-0.776-4.537-2.002c-1.162-1.213-1.838-2.693-2.008-4.399
			c-0.003-0.756,0.181-1.308,0.542-1.69c0.33-0.349,0.749-0.604,1.247-0.758c0.458-0.141,0.962-0.22,1.5-0.238
			c0.502-0.016,0.947-0.023,1.336-0.023h12c0.235,0,0.495-0.109,0.771-0.326c0.329-0.258,0.362-0.385,0.362-0.386l-0.001-3.013
			c0-1.267-0.245-2.477-0.728-3.594c-0.485-1.121-1.146-2.121-1.965-2.972c-0.814-0.844-1.787-1.517-2.889-2
			c-1.101-0.482-2.285-0.727-3.52-0.727H352.226z M345.63,20.11v-2.441c0.033-1.135,0.292-2.211,0.768-3.215
			c0.482-1.014,1.196-1.876,2.123-2.562c0.591-0.407,1.207-0.646,1.848-0.72c0.58-0.065,1.204-0.099,1.857-0.099h2.017
			c1.066,0,2.112,0.261,3.109,0.775c2.22,1.283,3.369,3.233,3.438,5.807v1.138h-9.428c-0.697,0-1.276,0.009-1.735,0.024
			c-0.432,0.016-0.822,0.06-1.159,0.133c-0.346,0.075-0.677,0.174-0.984,0.29c-0.323,0.123-0.699,0.294-1.13,0.509L345.63,20.11z
			 M352.226,12.073c-0.616,0-1.202,0.031-1.743,0.093c-0.476,0.055-0.94,0.236-1.381,0.539c-0.779,0.578-1.39,1.314-1.801,2.179
			c-0.416,0.877-0.643,1.819-0.671,2.8v0.829c0.178-0.079,0.344-0.147,0.498-0.206c0.353-0.135,0.731-0.247,1.127-0.334
			c0.396-0.085,0.846-0.138,1.338-0.155c0.468-0.016,1.059-0.024,1.77-0.024h8.428v-0.124c-0.06-2.221-1.015-3.842-2.918-4.943
			c-0.833-0.429-1.725-0.652-2.63-0.652H352.226z"/>
	</g>
</g>
<g>
</g>
<g>
</g>
<g>
</g>
<g>
</g>
<g>
</g>
<g>
</g>
</svg>
